<svg xmlns="http://www.w3.org/2000/svg" xmlns:xlink="http://www.w3.org/1999/xlink" version="1.1" class="marks" width="566" height="331" viewBox="0 0 566 331"><rect width="566" height="331" fill="white"/><g fill="none" stroke-miterlimit="10" transform="translate(43,11)"><g class="mark-group role-frame root" role="graphics-object" aria-roledescription="group mark container"><g transform="translate(0,0)"><path class="background" aria-hidden="true" d="M0.5,0.5h400v280h-400Z" stroke="#ddd"/><g><g class="mark-group role-axis" aria-hidden="true"><g transform="translate(0.5,280.5)"><path class="background" aria-hidden="true" d="M0,0h0v0h0Z" pointer-events="none"/><g><g class="mark-rule role-axis-grid" pointer-events="none"><line transform="translate(0,-280)" x2="0" y2="280" stroke="#ddd" stroke-width="1" opacity="1"/><line transform="translate(67,-280)" x2="0" y2="280" stroke="#ddd" stroke-width="1" opacity="1"/><line transform="translate(133,-280)" x2="0" y2="280" stroke="#ddd" stroke-width="1" opacity="1"/><line transform="translate(200,-280)" x2="0" y2="280" stroke="#ddd" stroke-width="1" opacity="1"/><line transform="translate(267,-280)" x2="0" y2="280" stroke="#ddd" stroke-width="1" opacity="1"/><line transform="translate(333,-280)" x2="0" y2="280" stroke="#ddd" stroke-width="1" opacity="1"/><line transform="translate(400,-280)" x2="0" y2="280" stroke="#ddd" stroke-width="1" opacity="1"/></g></g><path class="foreground" aria-hidden="true" d="" pointer-events="none" display="none"/></g></g><g class="mark-group role-axis" aria-hidden="true"><g transform="translate(0.5,0.5)"><path class="background" aria-hidden="true" d="M0,0h0v0h0Z" pointer-events="none"/><g><g class="mark-rule role-axis-grid" pointer-events="none"><line transform="translate(0,280)" x2="400" y2="0" stroke="#ddd" stroke-width="1" opacity="1"/><line transform="translate(0,245)" x2="400" y2="0" stroke="#ddd" stroke-width="1" opacity="1"/><line transform="translate(0,210)" x2="400" y2="0" stroke="#ddd" stroke-width="1" opacity="1"/><line transform="translate(0,175)" x2="400" y2="0" stroke="#ddd" stroke-width="1" opacity="1"/><line transform="translate(0,140)" x2="400" y2="0" stroke="#ddd" stroke-width="1" opacity="1"/><line transform="translate(0,105)" x2="400" y2="0" stroke="#ddd" stroke-width="1" opacity="1"/><line transform="translate(0,70)" x2="400" y2="0" stroke="#ddd" stroke-width="1" opacity="1"/><line transform="translate(0,35)" x2="400" y2="0" stroke="#ddd" stroke-width="1" opacity="1"/><line transform="translate(0,0)" x2="400" y2="0" stroke="#ddd" stroke-width="1" opacity="1"/></g></g><path class="foreground" aria-hidden="true" d="" pointer-events="none" display="none"/></g></g><g class="mark-group role-axis" role="graphics-symbol" aria-roledescription="axis" aria-label="X-axis titled 'Number of QPs' for a log scale with values from 1 to 64"><g transform="translate(0.5,280.5)"><path class="background" aria-hidden="true" d="M0,0h0v0h0Z" pointer-events="none"/><g><g class="mark-rule role-axis-tick" pointer-events="none"><line transform="translate(0,0)" x2="0" y2="5" stroke="#888" stroke-width="1" opacity="1"/><line transform="translate(67,0)" x2="0" y2="5" stroke="#888" stroke-width="1" opacity="1"/><line transform="translate(133,0)" x2="0" y2="5" stroke="#888" stroke-width="1" opacity="1"/><line transform="translate(200,0)" x2="0" y2="5" stroke="#888" stroke-width="1" opacity="1"/><line transform="translate(267,0)" x2="0" y2="5" stroke="#888" stroke-width="1" opacity="1"/><line transform="translate(333,0)" x2="0" y2="5" stroke="#888" stroke-width="1" opacity="1"/><line transform="translate(400,0)" x2="0" y2="5" stroke="#888" stroke-width="1" opacity="1"/></g><g class="mark-text role-axis-label" pointer-events="none"><text text-anchor="start" transform="translate(0,16)" font-family="sans-serif" font-size="12px" fill="#000" opacity="1">1</text><text text-anchor="middle" transform="translate(66.66666666666667,16)" font-family="sans-serif" font-size="12px" fill="#000" opacity="1">2</text><text text-anchor="middle" transform="translate(133.33333333333334,16)" font-family="sans-serif" font-size="12px" fill="#000" opacity="1">4</text><text text-anchor="middle" transform="translate(200,16)" font-family="sans-serif" font-size="12px" fill="#000" opacity="1">8</text><text text-anchor="middle" transform="translate(266.6666666666667,16)" font-family="sans-serif" font-size="12px" fill="#000" opacity="1">16</text><text text-anchor="middle" transform="translate(333.33333333333337,16)" font-family="sans-serif" font-size="12px" fill="#000" opacity="1">32</text><text text-anchor="end" transform="translate(400,16)" font-family="sans-serif" font-size="12px" fill="#000" opacity="1">64</text></g><g class="mark-rule role-axis-domain" pointer-events="none"><line transform="translate(0,0)" x2="400" y2="0" stroke="#888" stroke-width="1" opacity="1"/></g><g class="mark-text role-axis-title" pointer-events="none"><text text-anchor="middle" transform="translate(200,32)" font-family="sans-serif" font-size="13px" font-weight="bold" fill="#000" opacity="1">Number of QPs</text></g></g><path class="foreground" aria-hidden="true" d="" pointer-events="none" display="none"/></g></g><g class="mark-group role-axis" role="graphics-symbol" aria-roledescription="axis" aria-label="Y-axis titled 'Throughput (Mrps)' for a linear scale with values from 0 to 40"><g transform="translate(0.5,0.5)"><path class="background" aria-hidden="true" d="M0,0h0v0h0Z" pointer-events="none"/><g><g class="mark-rule role-axis-tick" pointer-events="none"><line transform="translate(0,280)" x2="-5" y2="0" stroke="#888" stroke-width="1" opacity="1"/><line transform="translate(0,245)" x2="-5" y2="0" stroke="#888" stroke-width="1" opacity="1"/><line transform="translate(0,210)" x2="-5" y2="0" stroke="#888" stroke-width="1" opacity="1"/><line transform="translate(0,175)" x2="-5" y2="0" stroke="#888" stroke-width="1" opacity="1"/><line transform="translate(0,140)" x2="-5" y2="0" stroke="#888" stroke-width="1" opacity="1"/><line transform="translate(0,105)" x2="-5" y2="0" stroke="#888" stroke-width="1" opacity="1"/><line transform="translate(0,70)" x2="-5" y2="0" stroke="#888" stroke-width="1" opacity="1"/><line transform="translate(0,35)" x2="-5" y2="0" stroke="#888" stroke-width="1" opacity="1"/><line transform="translate(0,0)" x2="-5" y2="0" stroke="#888" stroke-width="1" opacity="1"/></g><g class="mark-text role-axis-label" pointer-events="none"><text text-anchor="end" transform="translate(-7,284)" font-family="sans-serif" font-size="12px" fill="#000" opacity="1">0</text><text text-anchor="end" transform="translate(-7,249)" font-family="sans-serif" font-size="12px" fill="#000" opacity="1">5</text><text text-anchor="end" transform="translate(-7,214)" font-family="sans-serif" font-size="12px" fill="#000" opacity="1">10</text><text text-anchor="end" transform="translate(-7,179)" font-family="sans-serif" font-size="12px" fill="#000" opacity="1">15</text><text text-anchor="end" transform="translate(-7,144)" font-family="sans-serif" font-size="12px" fill="#000" opacity="1">20</text><text text-anchor="end" transform="translate(-7,109)" font-family="sans-serif" font-size="12px" fill="#000" opacity="1">25</text><text text-anchor="end" transform="translate(-7,74)" font-family="sans-serif" font-size="12px" fill="#000" opacity="1">30</text><text text-anchor="end" transform="translate(-7,39)" font-family="sans-serif" font-size="12px" fill="#000" opacity="1">35</text><text text-anchor="end" transform="translate(-7,4)" font-family="sans-serif" font-size="12px" fill="#000" opacity="1">40</text></g><g class="mark-rule role-axis-domain" pointer-events="none"><line transform="translate(0,280)" x2="0" y2="-280" stroke="#888" stroke-width="1" opacity="1"/></g><g class="mark-text role-axis-title" pointer-events="none"><text text-anchor="middle" transform="translate(-24.34765625,140) rotate(-90) translate(0,-3)" font-family="sans-serif" font-size="13px" font-weight="bold" fill="#000" opacity="1">Throughput (Mrps)</text></g></g><path class="foreground" aria-hidden="true" d="" pointer-events="none" display="none"/></g></g><g class="mark-group role-scope layer_0_pathgroup" role="graphics-object" aria-roledescription="group mark container"><g transform="translate(0,0)"><path class="background" aria-hidden="true" d="M0,0h400v280h-400Z"/><g><g class="mark-line role-mark layer_0_marks" role="graphics-object" aria-roledescription="line mark container"><path aria-label="Number of QPs: 1; Throughput (Mrps): 0.22147960408; System: copyrpc (QD=1); label: copyrpc (QD=1)" role="graphics-symbol" aria-roledescription="line mark" d="M0,278.45L66.667,276.98L133.333,273.932L200,268.417L266.667,268.473L333.333,267.943L400,267.912" stroke="#1f77b4" stroke-width="2" stroke-dasharray="1,0"/></g></g><path class="foreground" aria-hidden="true" d="" display="none"/></g><g transform="translate(0,0)"><path class="background" aria-hidden="true" d="M0,0h400v280h-400Z"/><g><g class="mark-line role-mark layer_0_marks" role="graphics-object" aria-roledescription="line mark container"><path aria-label="Number of QPs: 1; Throughput (Mrps): 14.7435827867; System: copyrpc (QD=256); label: copyrpc (QD=256)" role="graphics-symbol" aria-roledescription="line mark" d="M0,176.795L66.667,136.061L133.333,127.177L200,103.174L266.667,61.51L333.333,17.149L400,45.493" stroke="#ff7f0e" stroke-width="2" stroke-dasharray="4,2"/></g></g><path class="foreground" aria-hidden="true" d="" display="none"/></g></g><g class="mark-symbol role-mark layer_1_marks" role="graphics-object" aria-roledescription="symbol mark container"><path aria-label="Number of QPs: 1; Throughput (Mrps): 0.22147960408; System: copyrpc (QD=1); label: copyrpc (QD=1)" role="graphics-symbol" aria-roledescription="point" transform="translate(0,278.4496427714433)" d="M3.873,0A3.873,3.873,0,1,1,-3.873,0A3.873,3.873,0,1,1,3.873,0" fill="#1f77b4" stroke-width="2" stroke-dasharray="1,0" opacity="1"/><path aria-label="Number of QPs: 2; Throughput (Mrps): 0.431436837754; System: copyrpc (QD=1); label: copyrpc (QD=1)" role="graphics-symbol" aria-roledescription="point" transform="translate(66.66666666666667,276.97994213571866)" d="M3.873,0A3.873,3.873,0,1,1,-3.873,0A3.873,3.873,0,1,1,3.873,0" fill="#1f77b4" stroke-width="2" stroke-dasharray="1,0" opacity="1"/><path aria-label="Number of QPs: 4; Throughput (Mrps): 0.866797327606; System: copyrpc (QD=1); label: copyrpc (QD=1)" role="graphics-symbol" aria-roledescription="point" transform="translate(133.33333333333334,273.9324187067545)" d="M3.873,0A3.873,3.873,0,1,1,-3.873,0A3.873,3.873,0,1,1,3.873,0" fill="#1f77b4" stroke-width="2" stroke-dasharray="1,0" opacity="1"/><path aria-label="Number of QPs: 8; Throughput (Mrps): 1.65472322255; System: copyrpc (QD=1); label: copyrpc (QD=1)" role="graphics-symbol" aria-roledescription="point" transform="translate(200,268.41693744214996)" d="M3.873,0A3.873,3.873,0,1,1,-3.873,0A3.873,3.873,0,1,1,3.873,0" fill="#1f77b4" stroke-width="2" stroke-dasharray="1,0" opacity="1"/><path aria-label="Number of QPs: 16; Throughput (Mrps): 1.64677573536; System: copyrpc (QD=1); label: copyrpc (QD=1)" role="graphics-symbol" aria-roledescription="point" transform="translate(266.6666666666667,268.4725698524797)" d="M3.873,0A3.873,3.873,0,1,1,-3.873,0A3.873,3.873,0,1,1,3.873,0" fill="#1f77b4" stroke-width="2" stroke-dasharray="1,0" opacity="1"/><path aria-label="Number of QPs: 32; Throughput (Mrps): 1.72237178829; System: copyrpc (QD=1); label: copyrpc (QD=1)" role="graphics-symbol" aria-roledescription="point" transform="translate(333.33333333333337,267.9433974819979)" d="M3.873,0A3.873,3.873,0,1,1,-3.873,0A3.873,3.873,0,1,1,3.873,0" fill="#1f77b4" stroke-width="2" stroke-dasharray="1,0" opacity="1"/><path aria-label="Number of QPs: 64; Throughput (Mrps): 1.72687838712; System: copyrpc (QD=1); label: copyrpc (QD=1)" role="graphics-symbol" aria-roledescription="point" transform="translate(400,267.9118512901309)" d="M3.873,0A3.873,3.873,0,1,1,-3.873,0A3.873,3.873,0,1,1,3.873,0" fill="#1f77b4" stroke-width="2" stroke-dasharray="1,0" opacity="1"/><path aria-label="Number of QPs: 1; Throughput (Mrps): 14.7435827867; System: copyrpc (QD=256); label: copyrpc (QD=256)" role="graphics-symbol" aria-roledescription="point" transform="translate(0,176.79492049287254)" d="M3.873,0A3.873,3.873,0,1,1,-3.873,0A3.873,3.873,0,1,1,3.873,0" fill="#ff7f0e" stroke-width="2" stroke-dasharray="4,2" opacity="1"/><path aria-label="Number of QPs: 2; Throughput (Mrps): 20.5627554236; System: copyrpc (QD=256); label: copyrpc (QD=256)" role="graphics-symbol" aria-roledescription="point" transform="translate(66.66666666666667,136.06071203448985)" d="M3.873,0A3.873,3.873,0,1,1,-3.873,0A3.873,3.873,0,1,1,3.873,0" fill="#ff7f0e" stroke-width="2" stroke-dasharray="4,2" opacity="1"/><path aria-label="Number of QPs: 4; Throughput (Mrps): 21.8319248604; System: copyrpc (QD=256); label: copyrpc (QD=256)" role="graphics-symbol" aria-roledescription="point" transform="translate(133.33333333333334,127.1765259768985)" d="M3.873,0A3.873,3.873,0,1,1,-3.873,0A3.873,3.873,0,1,1,3.873,0" fill="#ff7f0e" stroke-width="2" stroke-dasharray="4,2" opacity="1"/><path aria-label="Number of QPs: 8; Throughput (Mrps): 25.2609021827; System: copyrpc (QD=256); label: copyrpc (QD=256)" role="graphics-symbol" aria-roledescription="point" transform="translate(200,103.17368472144659)" d="M3.873,0A3.873,3.873,0,1,1,-3.873,0A3.873,3.873,0,1,1,3.873,0" fill="#ff7f0e" stroke-width="2" stroke-dasharray="4,2" opacity="1"/><path aria-label="Number of QPs: 16; Throughput (Mrps): 31.2128180761; System: copyrpc (QD=256); label: copyrpc (QD=256)" role="graphics-symbol" aria-roledescription="point" transform="translate(266.6666666666667,61.51027346764139)" d="M3.873,0A3.873,3.873,0,1,1,-3.873,0A3.873,3.873,0,1,1,3.873,0" fill="#ff7f0e" stroke-width="2" stroke-dasharray="4,2" opacity="1"/><path aria-label="Number of QPs: 32; Throughput (Mrps): 37.5501184997; System: copyrpc (QD=256); label: copyrpc (QD=256)" role="graphics-symbol" aria-roledescription="point" transform="translate(333.33333333333337,17.149170501757474)" d="M3.873,0A3.873,3.873,0,1,1,-3.873,0A3.873,3.873,0,1,1,3.873,0" fill="#ff7f0e" stroke-width="2" stroke-dasharray="4,2" opacity="1"/><path aria-label="Number of QPs: 64; Throughput (Mrps): 33.501005089; System: copyrpc (QD=256); label: copyrpc (QD=256)" role="graphics-symbol" aria-roledescription="point" transform="translate(400,45.49296437670473)" d="M3.873,0A3.873,3.873,0,1,1,-3.873,0A3.873,3.873,0,1,1,3.873,0" fill="#ff7f0e" stroke-width="2" stroke-dasharray="4,2" opacity="1"/></g><g class="mark-group role-legend" role="graphics-symbol" aria-roledescription="legend" aria-label="Symbol legend titled 'System' for fill color and stroke color with 2 values: copyrpc (QD=1), copyrpc (QD=256)"><g transform="translate(420,0)"><path class="background" aria-hidden="true" d="M0,0h98v45h-98Z" pointer-events="none"/><g><g class="mark-group role-legend-entry"><g transform="translate(0,16)"><path class="background" aria-hidden="true" d="M0,0h0v0h0Z" pointer-events="none"/><g><g class="mark-group role-scope" role="graphics-object" aria-roledescription="group mark container"><g transform="translate(0,0)"><path class="background" aria-hidden="true" d="M0,0h97.9775390625v12.5h-97.9775390625Z" pointer-events="none" opacity="1"/><g><g class="mark-symbol role-legend-symbol" pointer-events="none"><path transform="translate(6,6)" d="M5,0A5,5,0,1,1,-5,0A5,5,0,1,1,5,0" fill="#1f77b4" stroke="#1f77b4" stroke-width="1.5" opacity="1"/></g><g class="mark-text role-legend-label" pointer-events="none"><text text-anchor="start" transform="translate(16,9)" font-family="sans-serif" font-size="10px" fill="#000" opacity="1">copyrpc (QD=1)</text></g></g><path class="foreground" aria-hidden="true" d="" pointer-events="none" display="none"/></g><g transform="translate(0,16)"><path class="background" aria-hidden="true" d="M0,0h97.9775390625v12.5h-97.9775390625Z" pointer-events="none" opacity="1"/><g><g class="mark-symbol role-legend-symbol" pointer-events="none"><path transform="translate(6,6)" d="M5,0A5,5,0,1,1,-5,0A5,5,0,1,1,5,0" fill="#ff7f0e" stroke="#ff7f0e" stroke-width="1.5" opacity="1"/></g><g class="mark-text role-legend-label" pointer-events="none"><text text-anchor="start" transform="translate(16,9)" font-family="sans-serif" font-size="10px" fill="#000" opacity="1">copyrpc (QD=256)</text></g></g><path class="foreground" aria-hidden="true" d="" pointer-events="none" display="none"/></g></g></g><path class="foreground" aria-hidden="true" d="" pointer-events="none" display="none"/></g></g><g class="mark-text role-legend-title" pointer-events="none"><text text-anchor="start" transform="translate(0,9)" font-family="sans-serif" font-size="11px" font-weight="bold" fill="#000" opacity="1">System</text></g></g><path class="foreground" aria-hidden="true" d="" pointer-events="none" display="none"/></g></g><g class="mark-group role-legend" role="graphics-symbol" aria-roledescription="legend" aria-label="Symbol legend titled 'label' for strokeDash with 2 values: copyrpc (QD=1), copyrpc (QD=256)"><g transform="translate(420,53)"><path class="background" aria-hidden="true" d="M0,0h98v45h-98Z" pointer-events="none"/><g><g class="mark-group role-legend-entry"><g transform="translate(0,16)"><path class="background" aria-hidden="true" d="M0,0h0v0h0Z" pointer-events="none"/><g><g class="mark-group role-scope" role="graphics-object" aria-roledescription="group mark container"><g transform="translate(0,0)"><path class="background" aria-hidden="true" d="M0,0h97.9775390625v12.5h-97.9775390625Z" pointer-events="none" opacity="1"/><g><g class="mark-symbol role-legend-symbol" pointer-events="none"><path transform="translate(6,6)" d="M5,0A5,5,0,1,1,-5,0A5,5,0,1,1,5,0" fill="black" fill-opacity="1" stroke-width="1.5" stroke-dasharray="1,0" opacity="1"/></g><g class="mark-text role-legend-label" pointer-events="none"><text text-anchor="start" transform="translate(16,9)" font-family="sans-serif" font-size="10px" fill="#000" opacity="1">copyrpc (QD=1)</text></g></g><path class="foreground" aria-hidden="true" d="" pointer-events="none" display="none"/></g><g transform="translate(0,16)"><path class="background" aria-hidden="true" d="M0,0h97.9775390625v12.5h-97.9775390625Z" pointer-events="none" opacity="1"/><g><g class="mark-symbol role-legend-symbol" pointer-events="none"><path transform="translate(6,6)" d="M5,0A5,5,0,1,1,-5,0A5,5,0,1,1,5,0" fill="black" fill-opacity="1" stroke-width="1.5" stroke-dasharray="4,2" opacity="1"/></g><g class="mark-text role-legend-label" pointer-events="none"><text text-anchor="start" transform="translate(16,9)" font-family="sans-serif" font-size="10px" fill="#000" opacity="1">copyrpc (QD=256)</text></g></g><path class="foreground" aria-hidden="true" d="" pointer-events="none" display="none"/></g></g></g><path class="foreground" aria-hidden="true" d="" pointer-events="none" display="none"/></g></g><g class="mark-text role-legend-title" pointer-events="none"><text text-anchor="start" transform="translate(0,9)" font-family="sans-serif" font-size="11px" font-weight="bold" fill="#000" opacity="1">label</text></g></g><path class="foreground" aria-hidden="true" d="" pointer-events="none" display="none"/></g></g></g><path class="foreground" aria-hidden="true" d="" display="none"/></g></g></g></svg>